<?xml version="1.0" encoding="UTF-8"?>
<svg width="42px" height="42px" viewBox="0 0 42 42" version="1.1" xmlns="http://www.w3.org/2000/svg" xmlns:xlink="http://www.w3.org/1999/xlink">
    <title>icon_setting</title>
    <g id="页面-1" stroke="none" stroke-width="1" fill="none" fill-rule="evenodd">
        <g id="合成小猫咪备份" transform="translate(-330.000000, -139.000000)">
            <g id="icon_setting" transform="translate(330.000000, 139.000000)">
                <rect id="矩形" fill="#000000" fill-rule="nonzero" opacity="0" x="0" y="0" width="41.6" height="41.6"></rect>
                <path d="M40.7247549,21.2377876 C40.755993,18.1783761 38.5193425,15.5675 35.4913363,15.1291238 L35.3284386,14.7015174 C36.6250665,12.8671869 36.8103326,10.4692131 35.8108489,8.45748626 C34.8113651,6.44575947 32.7884093,5.14489382 30.5433186,5.0701909 C29.2239032,5.06431026 27.9380483,5.48578493 26.8781204,6.27156144 L26.4708762,6.10866372 C26.4708762,2.7349419 23.7359343,-2.03124841e-08 20.3622124,-2.03124841e-08 C16.9884906,-2.03124841e-08 14.2535487,2.7349419 14.2535487,6.10866372 L13.8259422,6.27156144 C12.7716022,5.4899529 11.4935629,5.06869974 10.1811062,5.0701909 C7.90747124,5.12445931 5.8522232,6.43731868 4.84712639,8.47745137 C3.84202957,10.5175841 4.05351205,12.9471765 5.39598629,14.7829662 L5.23308857,15.1291238 C2.2829492,15.6157595 0.118634702,18.1663326 0.118634702,21.1563387 C0.118634702,24.1463448 2.2829492,26.6969179 5.23308857,27.1835536 L5.39598629,27.6111601 C4.00626313,29.4476288 3.76751872,31.9096102 4.77849273,33.9788804 C5.78946675,36.0481507 7.8783044,37.3729558 10.1811062,37.4053843 C11.5005217,37.4112649 12.7863766,36.9897902 13.8463045,36.2040137 L14.2739109,36.3669114 C14.7605466,39.3170508 17.3111197,41.4813653 20.3011258,41.4813653 C23.2911319,41.4813653 25.841705,39.3170508 26.3283407,36.3669114 L26.7559472,36.2040137 C27.815875,36.9897902 29.1017299,37.4112649 30.4211454,37.4053843 C32.7057808,37.3734001 34.781574,36.0691086 35.8016793,34.0246119 C36.8217846,31.9801151 36.6156428,29.5372481 35.2673519,27.6926089 L35.4302496,27.2650025 C38.4517586,26.8585352 40.7109925,24.2864843 40.7247549,21.2377876 Z" id="形状" fill="#000000" fill-rule="nonzero"></path>
                <path d="M34.9008321,23.2740088 C33.4605779,23.483905 32.2418285,24.4464841 31.7039647,25.7989232 L31.7039647,26.0025453 C31.1156782,27.3453688 31.294548,28.9007582 32.1722956,30.0749878 C32.7788336,30.8765989 32.709647,32.0008819 32.009398,32.7220754 C31.6319283,33.0859089 31.1286702,33.2901295 30.6044053,33.2922173 C30.1568692,33.2966635 29.7203348,33.1535374 29.3623103,32.8849731 C28.6548478,32.3635409 27.797685,32.084963 26.9188448,32.0908468 C26.3660862,32.0891495 25.8187678,32.1999988 25.31023,32.4166422 L25.1066079,32.4166422 C23.6359488,32.9269265 22.5848383,34.2309359 22.3984337,35.7764072 C22.3984337,36.9009812 21.4867864,37.8126285 20.3622124,37.8126285 C19.2376385,37.8126285 18.3259912,36.9009812 18.3259912,35.7764072 C18.116095,34.336153 17.1535159,33.1174036 15.8010768,32.5795399 L15.5974547,32.5795399 C15.0826152,32.3601694 14.5280874,32.2492639 13.9684777,32.2537445 C13.0965926,32.2522421 12.2472417,32.5306008 11.5453745,33.0478708 C11.18735,33.3164352 10.7508156,33.4595612 10.3032795,33.455115 C9.77901452,33.4530272 9.27575643,33.2488065 8.89828684,32.8849731 C8.19803784,32.1637796 8.12885119,31.0394966 8.73538912,30.2378855 C9.59319959,29.0558157 9.77081013,27.5113763 9.20372001,26.165443 L9.20372001,25.9618209 C8.68391989,24.4930676 7.37168651,23.4496049 5.82359277,23.2740088 C4.69901884,23.2740088 3.78737153,22.3623615 3.78737153,21.2377876 C3.78737153,20.1132136 4.69901884,19.2015663 5.82359277,19.2015663 C7.25449855,18.9993655 8.47107852,18.0539977 9.02046011,16.7173764 L9.02046011,16.5137543 C9.60874662,15.1709307 9.42987684,13.6155414 8.55212922,12.4413118 C7.94559127,11.6397006 8.01477792,10.5154177 8.71502694,9.79422417 C9.09395574,9.38554424 9.62383478,9.15004244 10.1811062,9.14263338 C10.6286423,9.13818724 11.0651767,9.28131327 11.4232012,9.54987763 C12.1306636,10.0713098 12.9878265,10.3498877 13.8666667,10.3440039 C14.4125692,10.3429543 14.9526889,10.2321605 15.4549192,10.0182085 L15.7807146,10.0182085 C17.1758725,9.46534109 18.1539113,8.18997854 18.3259912,6.69916788 C18.3259912,5.57459394 19.2376385,4.66294664 20.3622124,4.66294664 C21.4867864,4.66294664 22.3984337,5.57459394 22.3984337,6.69916788 C22.6083299,8.13942211 23.570909,9.35817151 24.923348,9.89603526 L25.1269701,9.89603526 C25.6418096,10.1154057 26.1963374,10.2263113 26.7559472,10.2218307 C27.6278323,10.2233331 28.4771832,9.94497436 29.1790504,9.42770437 C29.5370749,9.15914 29.9736093,9.01601397 30.4211454,9.02046011 C30.9454103,9.0225479 31.4486684,9.22676858 31.826138,9.59060204 C32.526387,10.3117955 32.5955737,11.4360785 31.9890357,12.2376897 C31.1312253,13.4197594 30.9536147,14.9641988 31.5207048,16.3101322 L31.5207048,16.5137543 C32.040505,17.9825075 33.3527384,19.0259702 34.9008321,19.2015663 C36.0254061,19.2015663 36.9370534,20.1132136 36.9370534,21.2377876 C36.9370534,22.3623615 36.0254061,23.2740088 34.9008321,23.2740088 Z" id="路径" fill="#FFEBD9" fill-rule="nonzero"></path>
                <path d="M20.3622124,13.0929026 C24.8605082,13.0929026 28.5070974,16.7394918 28.5070974,21.2377876 C28.5070974,25.7360833 24.8605082,29.3826725 20.3622124,29.3826725 C15.8639167,29.3826725 12.2173275,25.7360833 12.2173275,21.2377876 C12.2173275,16.7394918 15.8639167,13.0929026 20.3622124,13.0929026 Z M20.3622124,17.1653451 C18.1130646,17.1653451 16.28977,18.9886397 16.28977,21.2377876 C16.28977,23.4869354 18.1130646,25.31023 20.3622124,25.31023 C22.6113603,25.31023 24.4346549,23.4869354 24.4346549,21.2377876 C24.4346549,18.9886397 22.6113603,17.1653451 20.3622124,17.1653451 Z" id="形状结合" fill="#000000"></path>
            </g>
        </g>
    </g>
</svg>