<?xml version="1.0" encoding="UTF-8"?>
<svg width="17px" height="17px" viewBox="0 0 17 17" version="1.1" xmlns="http://www.w3.org/2000/svg" xmlns:xlink="http://www.w3.org/1999/xlink">
    <title>icon_suiji</title>
    <g id="页面-1" stroke="none" stroke-width="1" fill="none" fill-rule="evenodd">
        <g id="合成小猫咪" transform="translate(-71.000000, -340.000000)" fill="#000000" fill-rule="nonzero">
            <g id="编组-5" transform="translate(25.000000, 170.000000)">
                <g id="编组-3" transform="translate(14.000000, 115.000000)">
                    <g id="编组" transform="translate(0.000000, 42.000000)">
                        <g id="编组-2" transform="translate(32.000000, 11.000000)">
                            <g id="icon_suiji" transform="translate(0.000000, 2.000000)">
                                <rect id="矩形" opacity="0" x="0" y="0" width="16.56" height="16.56"></rect>
                                <path d="M12.175643,5.76917086 L13.106577,5.76917086 L13.106577,7.33881305 L15.4836,4.57817695 L13.1073209,1.87682695 L13.1073209,3.66894563 L12.1764839,3.66894563 C9.51114867,3.66894563 7.77260742,5.72280609 6.44473477,7.53488086 C5.25291609,9.16371211 4.22123133,10.700493 2.55876258,10.700493 L1.0764,10.700493 L1.0764,12.801543 L2.55801867,12.801543 C5.22335391,12.801543 6.72733828,10.6181135 8.05593867,8.80595789 C9.24777352,7.17626953 10.5092121,5.76917086 12.1756591,5.76917086 L12.175643,5.76917086 Z M4.95276609,6.97059563 L5.29779305,6.50311523 C5.58104344,6.11817609 5.87731219,5.70996563 6.19981172,5.30490867 C5.24495953,4.37879391 4.09552734,3.69527344 2.55801867,3.69527344 L1.0764,3.69527344 L1.0764,5.79557953 C1.0764,5.79557953 1.47582914,5.77554258 2.55801867,5.79557953 C3.60569742,5.81877 4.26279305,6.26382 4.95274992,6.97059563 L4.95276609,6.97059563 Z M13.1073047,10.781223 L12.1764677,10.781223 C11.1614238,10.781223 10.1481912,10.1930034 9.42220336,9.41261344 C9.35035217,9.51303753 9.27726591,9.6125722 9.20296125,9.71119477 C8.88434297,10.145733 8.54263125,10.6139735 8.1656325,11.0750822 C9.14540555,12.0675178 10.5652638,12.8815291 12.1764677,12.8815291 L13.1073209,12.8815291 L13.1073209,14.683173 L15.4836,11.9178148 L13.1073209,9.22142953 L13.1073209,10.781223 L13.1073047,10.781223 Z" id="形状"></path>
                            </g>
                        </g>
                    </g>
                </g>
            </g>
        </g>
    </g>
</svg>